{
  "asset": {
    "generator": "Angband3D Weapon Generator",
    "version": "2.0"
  },
  "scene": 0,
  "scenes": [
    {
      "name": "Scene",
      "nodes": [
        0
      ]
    }
  ],
  "nodes": [
    {
      "mesh": 0,
      "name": "hammer"
    }
  ],
  "materials": [
    {
      "doubleSided": true,
      "name": "knight_texture",
      "pbrMetallicRoughness": {
        "baseColorTexture": {
          "index": 0
        },
        "metallicFactor": 0.1,
        "roughnessFactor": 0.5
      }
    }
  ],
  "meshes": [
    {
      "name": "hammer_mesh",
      "primitives": [
        {
          "attributes": {
            "POSITION": 0,
            "TEXCOORD_0": 1,
            "NORMAL": 2
          },
          "indices": 3,
          "material": 0
        }
      ]
    }
  ],
  "textures": [
    {
      "sampler": 0,
      "source": 0
    }
  ],
  "images": [
    {
      "mimeType": "image/png",
      "name": "knight_texture",
      "uri": "knight_texture.png"
    }
  ],
  "samplers": [
    {
      "magFilter": 9729,
      "minFilter": 9987
    }
  ],
  "buffers": [
    {
      "byteLength": 11308,
      "uri": "hammer.bin"
    }
  ],
  "bufferViews": [
    {
      "buffer": 0,
      "byteLength": 3912,
      "byteOffset": 0,
      "target": 34962
    },
    {
      "buffer": 0,
      "byteLength": 2608,
      "byteOffset": 3912,
      "target": 34962
    },
    {
      "buffer": 0,
      "byteLength": 3912,
      "byteOffset": 6520,
      "target": 34962
    },
    {
      "buffer": 0,
      "byteLength": 876,
      "byteOffset": 10432,
      "target": 34963
    }
  ],
  "accessors": [
    {
      "bufferView": 0,
      "componentType": 5126,
      "count": 326,
      "max": [
        0.22,
        1.05,
        0.055
      ],
      "min": [
        -0.23,
        -0.26,
        -0.055
      ],
      "type": "VEC3"
    },
    {
      "bufferView": 1,
      "componentType": 5126,
      "count": 326,
      "type": "VEC2"
    },
    {
      "bufferView": 2,
      "componentType": 5126,
      "count": 326,
      "type": "VEC3"
    },
    {
      "bufferView": 3,
      "componentType": 5123,
      "count": 438,
      "type": "SCALAR"
    }
  ]
}