{
  "asset": {
    "generator": "Angband3D Weapon Generator",
    "version": "2.0"
  },
  "scene": 0,
  "scenes": [
    {
      "name": "Scene",
      "nodes": [
        0
      ]
    }
  ],
  "nodes": [
    {
      "mesh": 0,
      "name": "mace"
    }
  ],
  "materials": [
    {
      "doubleSided": true,
      "name": "knight_texture",
      "pbrMetallicRoughness": {
        "baseColorTexture": {
          "index": 0
        },
        "metallicFactor": 0.1,
        "roughnessFactor": 0.5
      }
    }
  ],
  "meshes": [
    {
      "name": "mace_mesh",
      "primitives": [
        {
          "attributes": {
            "POSITION": 0,
            "TEXCOORD_0": 1,
            "NORMAL": 2
          },
          "indices": 3,
          "material": 0
        }
      ]
    }
  ],
  "textures": [
    {
      "sampler": 0,
      "source": 0
    }
  ],
  "images": [
    {
      "mimeType": "image/png",
      "name": "knight_texture",
      "uri": "knight_texture.png"
    }
  ],
  "samplers": [
    {
      "magFilter": 9729,
      "minFilter": 9987
    }
  ],
  "buffers": [
    {
      "byteLength": 14796,
      "uri": "mace.bin"
    }
  ],
  "bufferViews": [
    {
      "buffer": 0,
      "byteLength": 5112,
      "byteOffset": 0,
      "target": 34962
    },
    {
      "buffer": 0,
      "byteLength": 3408,
      "byteOffset": 5112,
      "target": 34962
    },
    {
      "buffer": 0,
      "byteLength": 5112,
      "byteOffset": 8520,
      "target": 34962
    },
    {
      "buffer": 0,
      "byteLength": 1164,
      "byteOffset": 13632,
      "target": 34963
    }
  ],
  "accessors": [
    {
      "bufferView": 0,
      "componentType": 5126,
      "count": 426,
      "max": [
        0.155,
        1.08,
        0.137983937586588
      ],
      "min": [
        -0.155,
        -0.28,
        -0.13798393758658797
      ],
      "type": "VEC3"
    },
    {
      "bufferView": 1,
      "componentType": 5126,
      "count": 426,
      "type": "VEC2"
    },
    {
      "bufferView": 2,
      "componentType": 5126,
      "count": 426,
      "type": "VEC3"
    },
    {
      "bufferView": 3,
      "componentType": 5123,
      "count": 582,
      "type": "SCALAR"
    }
  ]
}